<?xml version="1.0" encoding="UTF-8"?>
<svg id="Layer_2" data-name="Layer 2" xmlns="http://www.w3.org/2000/svg" viewBox="0 0 450.07 149.2">
  <defs>
    <style>
      .cls-1 {
        fill: #ed1c24;
      }

      .cls-1, .cls-2 {
        fill-rule: evenodd;
        stroke-width: 0px;
      }

      .cls-2 {
        fill: #231f20;
      }
    </style>
  </defs>
  <g id="Warstwa_1" data-name="Warstwa 1">
    <g>
      <path class="cls-1" d="M450.07,146.42h-37.16v-55.27c0-7.74-1.94-13.86-5.81-18.35-4.64-5.42-11.46-8.13-20.43-8.13-5.57,0-10.68,1.55-15.33,4.65-6.66,4.49-9.99,11.3-9.99,20.44s3.1,15.94,9.29,20.43c4.49,3.25,9.52,4.88,15.1,4.88,4.49,0,7.78-.12,9.87-.35,2.09-.23,4.84-1.12,8.25-2.67v30.65c-5.11,4.34-13.08,6.5-23.92,6.5-15.79,0-29.07-5.76-39.83-17.3-10.76-11.53-16.14-25.58-16.14-42.15,0-17.65,5.96-32.05,17.88-43.2,11.14-10.53,24.54-15.79,40.17-15.79,18.11,0,33.37,3.95,45.75,11.84,14.86,9.44,22.3,23.07,22.3,40.87v62.93Z"/>
      <path class="cls-1" d="M281.93,33.32v19.28c1.7-5.73,4.64-10.22,8.82-13.47,4.8-3.87,11.07-5.81,18.81-5.81h4.88v33.44c-10.99,0-18.43,1.59-22.29,4.76-3.87,3.21-5.81,8.44-5.81,15.75v59.14h-37.15V33.32h32.75Z"/>
      <path class="cls-1" d="M114.03,66.53l-56.43,38.55-13.93-22.06,30.42-19.97c-2.32-1.24-4.18-2.09-5.57-2.55-2.79-1.08-5.8-1.62-9.06-1.62-6.97,0-12.62,2.98-16.95,8.94-4.34,5.96-6.5,12.81-6.5,20.55,0,9.6,3.25,17.03,9.75,22.29,4.8,3.87,9.83,5.8,15.09,5.8,6.66,0,12.81-2.01,18.46-6.03,5.65-4.03,10.72-10.3,15.21-18.81l26.71,13.47c-7.39,15.95-17.34,27.64-29.84,35.07-10.18,6.04-21.06,9.05-32.63,9.05-15.87,0-29.65-6-41.3-18C5.81,119.21,0,106.32,0,92.54v-2.32c0-21.83,8.13-38.08,24.38-48.77,10.84-7.12,22.22-10.68,34.14-10.68,10.22,0,19.35,2.09,27.4,6.27,11.3,5.88,20.67,15.71,28.1,29.49"/>
      <path class="cls-2" d="M181.6,114.6h0c-3.4,0-6.31-1.47-8.71-4.41-2.4-2.94-3.6-6.89-3.6-11.84v-29.13c3.99.36,8.15.56,12.43.56,4.69,0,9.24-.24,13.58-.67v28.77c0,5.11-1.36,9.17-4.06,12.19-2.71,3.02-5.92,4.53-9.64,4.53M134.41,42.93h0c0-5.14,7.75-9.71,19.62-12.53v12.1c0,1.85,1.85,3.36,4.1,3.36h2.05c2.26,0,4.11-1.51,4.11-3.36v-13.95c5.4-.7,11.29-1.1,17.45-1.1s12.04.39,17.44,1.1v13.95c0,1.85,1.85,3.36,4.1,3.36h2.05c2.26,0,4.11-1.51,4.11-3.36v-12.1c11.87,2.82,19.62,7.39,19.62,12.53,0,8.52-21.26,15.48-47.32,15.48s-47.33-6.95-47.33-15.48ZM219.69,132.95c7.58-9.14,11.38-19.89,11.38-32.28v-43.95c1.09-1.15,1.98-2.29,2.41-3.59,1.17-3.51.56-10.63.56-10.63-.4-6.8-10.14-12.76-24.6-16.16V3.35c0-1.85-1.85-3.35-4.11-3.35h-2.05c-2.26,0-4.1,1.51-4.1,3.35v21.13c-5.46-.73-11.33-1.12-17.45-1.12-6.11,0-11.98.4-17.44,1.12V3.35c0-1.85-1.85-3.35-4.11-3.35h-2.05c-2.26,0-4.1,1.51-4.1,3.35v22.99c-14.77,3.47-24.63,9.61-24.63,16.59,0,.25-.62,7.17.38,9.62l.2.57c.72,1.78,2.09,3.49,4.02,5.08v41.52c0,14.86,4.38,26.82,13.12,35.88,7.62,7.89,17.68,12.34,30.18,13.36,17.15.49,30.7-1.92,42.39-16.03Z"/>
    </g>
  </g>
</svg>