<svg version="1.1" id="Layer_1" xmlns="http://www.w3.org/2000/svg" x="0" y="0" viewBox="0 0 2000 1030" style="enable-background:new 0 0 2000 1030" xml:space="preserve">
  <style>
    .st0{fill:#fff}.st1{fill:#be544a}.st2{fill:#dce4f0}.st3{fill:#1e1826}
  </style>
  <path class="st1" d="M215.53 410.16h786.41v207.88H215.53z"/>
  <path class="st0" d="M274.79 558.35c-4.6-2.17-8.16-5.22-10.68-9.15-2.52-3.93-3.78-8.47-3.78-13.6v-3.45c0-.44.15-.82.47-1.13.31-.31.68-.46 1.13-.46h15.26c.44 0 .82.15 1.13.46.31.31.47.69.47 1.13v2.52c0 3.1 1.15 5.68 3.45 7.76 2.3 2.08 5.39 3.12 9.29 3.12 3.45 0 6.08-.88 7.9-2.65 1.81-1.77 2.72-4.02 2.72-6.77 0-2.03-.58-3.78-1.72-5.24-1.15-1.46-2.77-2.83-4.84-4.11-2.08-1.28-5.28-3.03-9.62-5.24-5.31-2.65-9.64-5.13-13-7.43-3.36-2.3-6.24-5.26-8.62-8.89-2.39-3.63-3.58-8.01-3.58-13.14 0-5.13 1.21-9.62 3.65-13.47 2.43-3.85 5.86-6.81 10.28-8.89 4.42-2.08 9.46-3.12 15.13-3.12 5.93 0 11.19 1.13 15.79 3.38 4.6 2.26 8.18 5.42 10.75 9.49 2.56 4.07 3.85 8.76 3.85 14.06v2.65c0 .44-.16.82-.46 1.13-.31.31-.69.47-1.13.47h-15.26c-.44 0-.82-.15-1.13-.47-.31-.31-.46-.68-.46-1.13v-2.39c0-3.18-1.11-5.84-3.32-7.96s-5.22-3.19-9.02-3.19c-3.18 0-5.68.82-7.5 2.46-1.81 1.64-2.72 3.91-2.72 6.83 0 2.04.53 3.8 1.59 5.31 1.06 1.5 2.7 2.94 4.91 4.31 2.21 1.37 5.57 3.16 10.08 5.37l2.79 1.59c5.13 2.83 9.13 5.29 12.01 7.37 2.87 2.08 5.28 4.71 7.23 7.89 1.95 3.19 2.92 7.03 2.92 11.54 0 8.05-2.72 14.44-8.16 19.17-5.44 4.73-12.67 7.1-21.69 7.1-6.16.02-11.51-1.06-16.11-3.23zm139.77-60.9c3.41 4.11 5.11 9.89 5.11 17.32v44.18c0 .44-.15.82-.46 1.13-.31.31-.69.47-1.13.47h-15.39c-.44 0-.82-.15-1.13-.47-.31-.31-.46-.68-.46-1.13v-41.53c0-3.1-.73-5.55-2.19-7.36s-3.43-2.72-5.9-2.72c-2.57 0-4.6.91-6.1 2.72s-2.26 4.23-2.26 7.23v41.66c0 .44-.16.82-.46 1.13-.31.31-.69.47-1.13.47h-15.39c-.44 0-.82-.15-1.13-.47-.31-.31-.46-.68-.46-1.13v-41.53c0-3.1-.75-5.55-2.26-7.36s-3.49-2.72-5.97-2.72c-2.57 0-4.6.91-6.1 2.72s-2.26 4.23-2.26 7.23v41.66c0 .44-.16.82-.46 1.13-.31.31-.69.47-1.13.47h-15.4c-.44 0-.82-.15-1.13-.47-.31-.31-.46-.68-.46-1.13v-65.01c0-.44.15-.82.46-1.13.31-.31.68-.46 1.13-.46h15.39c.44 0 .82.16 1.13.46.31.31.46.69.46 1.13v3.45c0 .27.09.44.27.53.18.09.35 0 .53-.27 1.86-2.21 4.02-3.83 6.5-4.84 2.48-1.02 5.13-1.53 7.96-1.53 3.98 0 7.41.82 10.28 2.46 2.87 1.64 5.11 4 6.7 7.1.09.18.22.25.4.2.18-.04.35-.2.53-.46 1.95-3.27 4.42-5.64 7.43-7.1s6.24-2.19 9.68-2.19c6.46-.01 11.4 2.05 14.8 6.16zm24.95 58.38c-4.91-3.85-7.85-9.13-8.82-15.85-.71-4.07-1.06-8.62-1.06-13.67 0-5.13.35-9.68 1.06-13.67.97-6.54 3.91-11.74 8.82-15.59 4.91-3.85 11.21-5.77 18.91-5.77 7.61 0 13.82 1.92 18.64 5.77 4.82 3.85 7.76 9.05 8.82 15.59.71 3.98 1.06 8.54 1.06 13.67 0 4.95-.35 9.47-1.06 13.53-.97 6.81-3.87 12.14-8.69 15.99-4.82 3.85-11.08 5.77-18.77 5.77s-14-1.92-18.91-5.77zm24.81-12.53c1.64-1.5 2.72-3.54 3.25-6.1.44-3.72.66-7.34.66-10.88 0-3.63-.22-7.21-.66-10.75-.44-2.56-1.48-4.58-3.12-6.04-1.64-1.46-3.7-2.19-6.17-2.19-2.39 0-4.4.73-6.04 2.19s-2.68 3.47-3.12 6.04c-.44 2.65-.66 6.24-.66 10.75 0 4.42.18 8.05.53 10.88.53 2.57 1.64 4.6 3.32 6.1s3.71 2.25 6.1 2.25c2.3 0 4.27-.75 5.91-2.25zm33.83 16.78c-.31-.31-.46-.68-.46-1.13v-89.69c0-.44.15-.82.46-1.13.31-.31.69-.46 1.13-.46h15.52c.44 0 .82.15 1.13.46.31.31.46.69.46 1.13v44.31c0 .27.09.44.27.53.18.09.35 0 .53-.27l14.86-20.57c.44-.62 1.06-.93 1.86-.93h16.85c.88 0 1.33.31 1.33.93 0 .27-.13.62-.4 1.06l-15.66 21.76c-.18.26-.18.58 0 .93l18.04 41.66c.09.18.13.44.13.8 0 .71-.44 1.06-1.33 1.06h-16.32c-.98 0-1.59-.44-1.86-1.33l-10.75-28.53c-.09-.26-.22-.4-.4-.4-.18 0-.36.09-.53.27l-6.37 8.76c-.18.36-.27.62-.27.8v18.84c0 .44-.15.82-.46 1.13-.31.31-.69.47-1.13.47h-15.52c-.42 0-.8-.15-1.11-.46zm115.36-34.3-.13 5.17c0 1.06-.53 1.59-1.59 1.59h-35.16c-.44 0-.66.22-.66.66.18 2.04.35 3.54.53 4.51.44 2.48 1.53 4.43 3.25 5.84 1.72 1.42 3.87 2.12 6.44 2.12 4.33-.09 7.34-2.08 9.02-5.97.44-.88 1.1-1.24 1.99-1.06l14.07 2.79c1.06.27 1.41.93 1.06 1.99-1.95 5.84-5.15 10.33-9.62 13.47-4.47 3.14-9.97 4.71-16.52 4.71-7.87 0-14.13-1.79-18.77-5.37-4.65-3.58-7.68-8.73-9.09-15.46-.8-3.63-1.19-9.16-1.19-16.59 0-4.25.26-7.83.8-10.75.97-6.72 3.89-12.1 8.76-16.12 4.86-4.02 11.01-6.04 18.44-6.04 8.05 0 14.59 2.28 19.64 6.83 5.04 4.56 7.83 10.55 8.36 17.98.24 2.94.37 6.17.37 9.7zm-34.16-16.32c-1.55 1.42-2.55 3.36-2.99 5.84-.26 1.59-.4 3.27-.4 5.04 0 .44.22.66.66.66h17.25c.44 0 .66-.22.66-.66 0-1.77-.13-3.45-.4-5.04-.36-2.39-1.33-4.31-2.92-5.77-1.59-1.46-3.58-2.19-5.97-2.19-2.37 0-4.34.71-5.89 2.12zm119.07 49.76-3.05-13c-.09-.35-.31-.53-.66-.53H669.9c-.35 0-.58.18-.66.53l-3.05 13c-.26.89-.84 1.33-1.72 1.33h-16.06c-1.15 0-1.59-.58-1.33-1.72L670.96 469c.27-.88.88-1.33 1.86-1.33h19.24c.97 0 1.59.44 1.86 1.33l23.88 89.83.13.53c0 .8-.49 1.2-1.46 1.2h-16.18c-.98-.02-1.6-.46-1.87-1.34zm-25.47-28.2c.18.13.35.2.53.2H691c.18 0 .35-.07.53-.2.18-.13.22-.33.13-.6l-9.15-38.48c-.09-.35-.22-.53-.4-.53-.18 0-.31.18-.4.53l-8.89 38.48c-.09.27-.05.47.13.6zm53.93 29.06c-.31-.31-.46-.68-.46-1.13v-89.69c0-.44.15-.82.46-1.13.31-.31.69-.46 1.13-.46h15.52c.44 0 .82.15 1.13.46.31.31.47.69.47 1.13v89.69c0 .44-.16.82-.47 1.13-.31.31-.69.47-1.13.47h-15.52c-.44-.01-.81-.16-1.13-.47zM797 494.14c4.16 1.9 7.41 4.56 9.75 7.96 2.34 3.41 3.52 7.28 3.52 11.61v45.24c0 .44-.16.82-.47 1.13-.31.31-.69.47-1.13.47h-15.52c-.44 0-.82-.15-1.13-.47-.31-.31-.47-.68-.47-1.13v-3.72c0-.27-.09-.44-.26-.53-.18-.09-.36 0-.53.26-3.36 4.43-8.58 6.63-15.66 6.63-6.01 0-11.03-1.55-15.06-4.64-4.03-3.1-6.04-8.27-6.04-15.52 0-14.42 9.02-21.63 27.07-21.63h9.82c.44 0 .66-.22.66-.66v-3.05c0-2.65-.77-4.78-2.32-6.37-1.55-1.59-3.65-2.39-6.3-2.39-2.12 0-3.89.49-5.31 1.46-1.42.97-2.3 2.3-2.65 3.98-.26.89-.88 1.33-1.86 1.33l-16.06-.93c-.44 0-.82-.13-1.13-.4-.31-.26-.42-.62-.33-1.06.53-6.1 3.3-11.03 8.29-14.79 4.99-3.76 11.3-5.64 18.91-5.64 5.32 0 10.06.96 14.21 2.86zm-8.62 50.75c2.12-1.68 3.19-3.89 3.19-6.63v-5.57c0-.44-.22-.66-.66-.66h-7.43c-3.27 0-5.84.71-7.7 2.12-1.86 1.42-2.79 3.45-2.79 6.1 0 2.3.71 4.07 2.12 5.31 1.41 1.24 3.27 1.86 5.57 1.86 3.01-.01 5.58-.85 7.7-2.53zm71.91-51.88c.71.44.97 1.15.8 2.12l-2.65 15.26c-.09 1.06-.71 1.37-1.86.93-1.42-.35-2.7-.53-3.85-.53-1.06 0-2.21.13-3.45.4-2.57.36-4.73 1.59-6.5 3.72-1.77 2.12-2.66 4.69-2.66 7.69v36.35c0 .44-.15.82-.46 1.13-.31.31-.69.47-1.13.47h-15.52c-.44 0-.82-.15-1.13-.47-.31-.31-.46-.68-.46-1.13v-65.01c0-.44.15-.82.46-1.13.31-.31.69-.46 1.13-.46h15.52c.44 0 .82.16 1.13.46.31.31.46.69.46 1.13v5.31c0 .35.07.55.2.6.13.05.29-.07.46-.33 3.1-5.39 7.43-8.1 13-8.1 2.4 0 4.56.53 6.51 1.59zm91.75 4.44c3.41 4.11 5.11 9.89 5.11 17.32v44.18c0 .44-.15.82-.46 1.13-.31.31-.69.47-1.13.47h-15.39c-.44 0-.82-.15-1.13-.47-.31-.31-.46-.68-.46-1.13v-41.53c0-3.1-.73-5.55-2.19-7.36-1.46-1.81-3.43-2.72-5.9-2.72-2.57 0-4.6.91-6.1 2.72s-2.25 4.23-2.25 7.23v41.66c0 .44-.16.82-.47 1.13-.31.31-.69.47-1.13.47h-15.39c-.44 0-.82-.15-1.13-.47-.31-.31-.47-.68-.47-1.13v-41.53c0-3.1-.75-5.55-2.26-7.36s-3.49-2.72-5.97-2.72c-2.57 0-4.6.91-6.11 2.72-1.5 1.81-2.25 4.23-2.25 7.23v41.66c0 .44-.16.82-.47 1.13-.31.31-.69.47-1.13.47h-15.39c-.44 0-.82-.15-1.13-.47-.31-.31-.47-.68-.47-1.13v-65.01c0-.44.15-.82.47-1.13.31-.31.68-.46 1.13-.46h15.39c.44 0 .82.16 1.13.46.31.31.47.69.47 1.13v3.45c0 .27.08.44.26.53.18.09.35 0 .53-.27 1.86-2.21 4.02-3.83 6.5-4.84s5.13-1.53 7.96-1.53c3.98 0 7.41.82 10.28 2.46 2.87 1.64 5.11 4 6.7 7.1.09.18.22.25.4.2.18-.04.35-.2.53-.46 1.95-3.27 4.42-5.64 7.43-7.1s6.24-2.19 9.68-2.19c6.47-.01 11.4 2.05 14.81 6.16z"/>
  <path class="st2" d="M215.6 175.68h560.69v207.88H215.6z"/>
  <path class="st3" d="M310.26 228.54h-39.8c-.35 0-.53.18-.53.53v32.91c0 .35.18.53.53.53h26.8c.88 0 1.33.44 1.33 1.33v5.57c0 .89-.44 1.33-1.33 1.33h-26.8c-.35 0-.53.18-.53.53v33.17c0 .36.18.53.53.53h39.8c.88 0 1.33.44 1.33 1.33v5.57c0 .88-.44 1.33-1.33 1.33h-48.43c-.88 0-1.33-.44-1.33-1.33v-90.22c0-.88.44-1.33 1.33-1.33h48.43c.88 0 1.33.44 1.33 1.33v5.57c-.01.88-.45 1.32-1.33 1.32zm54.13 17.51h6.77c.88 0 1.33.44 1.33 1.33v64.48c0 .88-.44 1.33-1.33 1.33h-6.77c-.89 0-1.33-.44-1.33-1.33v-5.17c0-.27-.07-.4-.2-.4s-.29.09-.47.27c-3.1 5.04-8.22 7.56-15.39 7.56-6.02 0-10.93-1.77-14.73-5.31-3.8-3.54-5.7-8.67-5.7-15.39v-46.04c0-.88.44-1.33 1.33-1.33h6.77c.88 0 1.33.44 1.33 1.33v43.65c0 4.69 1.15 8.34 3.45 10.95 2.3 2.61 5.53 3.92 9.69 3.92 4.33 0 7.74-1.39 10.22-4.18 2.47-2.79 3.71-6.52 3.71-11.21v-43.12c-.01-.89.43-1.34 1.32-1.34zm58.38.93c.62.27.84.8.66 1.59l-1.59 6.9c-.09.88-.62 1.15-1.59.8-1.41-.62-2.96-.93-4.64-.93l-1.59.13c-3.89.09-7.12 1.77-9.68 5.04-2.57 3.27-3.85 7.25-3.85 11.94v39.41c0 .88-.44 1.33-1.33 1.33h-6.77c-.89 0-1.33-.44-1.33-1.33v-64.48c0-.88.44-1.33 1.33-1.33h6.77c.88 0 1.33.44 1.33 1.33V256c0 .26.07.4.2.4s.24-.09.33-.26c1.5-3.36 3.52-5.99 6.04-7.89 2.52-1.9 5.5-2.85 8.95-2.85 2.65-.01 4.9.52 6.76 1.58zm17.91 62.03c-4.16-3.49-6.68-8.2-7.56-14.13-.53-4.42-.8-9.55-.8-15.39s.26-10.88.8-15.13c.8-5.84 3.3-10.53 7.5-14.06 4.2-3.54 9.53-5.31 15.99-5.31 6.46 0 11.79 1.77 15.99 5.31 4.2 3.54 6.7 8.23 7.5 14.06.53 3.54.8 8.58.8 15.13 0 6.72-.27 11.85-.8 15.39-.8 5.93-3.3 10.64-7.5 14.13-4.2 3.5-9.53 5.24-15.99 5.24-6.46 0-11.77-1.74-15.93-5.24zm25.54-6.5c2.61-2.34 4.18-5.46 4.71-9.35.35-3.27.53-7.78.53-13.53 0-5.84-.18-10.35-.53-13.53-.44-3.89-1.97-7.01-4.58-9.35-2.61-2.34-5.86-3.52-9.75-3.52s-7.12 1.17-9.68 3.52c-2.57 2.34-4.11 5.46-4.64 9.35-.36 3.18-.53 7.7-.53 13.53 0 5.84.18 10.35.53 13.53.44 3.89 1.97 7.01 4.58 9.35 2.61 2.34 5.86 3.52 9.75 3.52 3.79 0 7-1.17 9.61-3.52zm80.21-23.55c0 6.02-.44 11.28-1.33 15.79-1.42 6.63-3.91 11.52-7.5 14.66-3.58 3.14-8.34 4.71-14.26 4.71-3.63 0-6.61-.62-8.96-1.86-2.34-1.24-4.22-3.05-5.64-5.44-.09-.27-.22-.38-.4-.33-.18.05-.26.2-.26.46v30.65c0 .88-.44 1.33-1.33 1.33h-6.77c-.89 0-1.33-.44-1.33-1.33v-90.22c0-.88.44-1.33 1.33-1.33h6.77c.88 0 1.33.44 1.33 1.33v5.04c0 .27.09.42.26.46.18.05.31-.07.4-.33 3.19-5.04 8.27-7.56 15.26-7.56 5.57 0 10.02 1.48 13.33 4.44 3.32 2.96 5.77 7.72 7.36 14.26 1.16 4.7 1.74 9.79 1.74 15.27zm-9.56.66c0-7.08-.66-12.6-1.99-16.58-1.15-3.27-2.74-5.75-4.78-7.43-2.04-1.68-4.69-2.52-7.96-2.52-3.1 0-5.59.84-7.5 2.52-1.9 1.68-3.38 4.11-4.44 7.3-1.33 3.98-1.99 9.55-1.99 16.72 0 7.34.75 13.05 2.26 17.12 1.06 3.01 2.48 5.31 4.25 6.9 1.77 1.59 4.16 2.39 7.17 2.39 5.84 0 9.99-2.96 12.47-8.89 1.67-4.53 2.51-10.36 2.51-17.53zm56.72 23.82c2.43-1.72 4.18-4.05 5.24-6.97.26-.8.8-1.1 1.59-.93l6.1 1.19c.44.09.73.29.86.6s.15.64.07.99c-1.51 4.95-4.25 8.85-8.23 11.68-3.98 2.83-8.8 4.25-14.46 4.25-6.46 0-11.72-1.7-15.79-5.11-4.07-3.4-6.59-8.03-7.56-13.86-.36-2.21-.58-4.82-.66-7.83-.09-3.01-.13-5.5-.13-7.5v-4.18c0-4.51.18-8.18.53-11.01.71-5.93 3.16-10.7 7.36-14.33 4.2-3.63 9.49-5.44 15.86-5.44 6.81 0 12.34 1.95 16.59 5.84 4.25 3.89 6.63 9.02 7.16 15.39.27 2.92.4 8.27.4 16.05 0 .89-.44 1.33-1.33 1.33h-36.62c-.35 0-.53.18-.53.53 0 2.74.09 5.79.26 9.15.44 3.81 1.97 6.88 4.58 9.22 2.61 2.34 5.95 3.52 10.02 3.52 3.36.01 6.26-.86 8.69-2.58zm-18.84-46.7c-2.52 2.34-4 5.42-4.45 9.22-.18 3.72-.26 6.81-.26 9.29 0 .36.18.53.53.53h27.99c.35 0 .53-.18.53-.53 0-2.57-.18-5.62-.53-9.15-.44-3.8-1.92-6.9-4.44-9.29-2.52-2.39-5.73-3.58-9.62-3.58-3.98-.01-7.23 1.16-9.75 3.51zm87.44-5.64c4.02 4.07 6.04 9.47 6.04 16.19v44.58c0 .88-.44 1.33-1.33 1.33h-6.77c-.89 0-1.33-.44-1.33-1.33v-4.78c0-.18-.07-.31-.2-.4-.13-.09-.29-.04-.46.13-1.95 2.48-4.42 4.33-7.43 5.57-3.01 1.24-6.37 1.86-10.08 1.86-5.57 0-10.33-1.5-14.26-4.51-3.94-3.01-5.9-7.91-5.9-14.73 0-7.08 2.28-12.45 6.83-16.12 4.55-3.67 10.77-5.5 18.64-5.5h12.34c.35 0 .53-.18.53-.53v-5.04c0-4.51-1.13-8.07-3.38-10.68-2.26-2.61-5.6-3.91-10.02-3.91-3.45 0-6.32.86-8.62 2.59-2.3 1.72-3.67 4-4.11 6.83-.09.8-.58 1.19-1.46 1.19l-7.3-.4c-.44 0-.77-.13-.99-.4a.997.997 0 0 1-.2-.93c.62-5.13 3.03-9.27 7.23-12.41 4.2-3.14 9.4-4.71 15.59-4.71 7.06 0 12.61 2.04 16.64 6.11zm-8.23 51.28c3.23-2.43 4.84-5.82 4.84-10.15v-10.75c0-.35-.18-.53-.53-.53H646.6c-5.04 0-9.07 1.17-12.07 3.52-3.01 2.34-4.51 5.68-4.51 10.02 0 3.89 1.15 6.79 3.45 8.69 2.3 1.9 5.31 2.85 9.02 2.85 4.41 0 8.24-1.22 11.47-3.65zM726 251.03c3.58 3.94 5.37 9.31 5.37 16.12v44.71c0 .88-.44 1.33-1.33 1.33h-6.77c-.89 0-1.33-.44-1.33-1.33v-43.39c0-4.6-1.19-8.27-3.58-11.01s-5.66-4.11-9.82-4.11-7.5 1.39-10.02 4.18-3.78 6.52-3.78 11.21v43.12c0 .88-.44 1.33-1.33 1.33h-6.77c-.89 0-1.33-.44-1.33-1.33v-64.48c0-.88.44-1.33 1.33-1.33h6.77c.88 0 1.33.44 1.33 1.33v5.17c0 .18.07.31.2.4.13.09.29.05.46-.13 3.45-5.13 8.76-7.7 15.92-7.7 6.21.01 11.1 1.98 14.68 5.91z"/>
  <path class="st2" d="M215.53 646.44H475v207.88H215.53z"/>
  <path class="st3" d="M258.74 782.22V692c0-.88.44-1.33 1.33-1.33h25.87c7.87 0 14.08 2.26 18.64 6.77 4.55 4.51 6.83 10.66 6.83 18.44v42.46c0 7.78-2.28 13.93-6.83 18.44-4.56 4.51-10.77 6.77-18.64 6.77h-25.87c-.89 0-1.33-.44-1.33-1.33zm9.95-6.9h17.38c4.86-.09 8.71-1.7 11.54-4.84 2.83-3.14 4.29-7.45 4.38-12.94v-40.86c0-5.48-1.42-9.82-4.25-13-2.83-3.18-6.72-4.77-11.68-4.77h-17.38c-.35 0-.53.18-.53.53v75.36c.01.35.19.52.54.52zm97.98-53.87c4.02 4.07 6.04 9.47 6.04 16.19v44.58c0 .88-.44 1.33-1.33 1.33h-6.77c-.88 0-1.33-.44-1.33-1.33v-4.78c0-.18-.07-.31-.2-.4-.13-.09-.29-.04-.46.13-1.95 2.48-4.43 4.33-7.43 5.57-3.01 1.24-6.37 1.86-10.08 1.86-5.57 0-10.33-1.5-14.26-4.51-3.94-3.01-5.9-7.91-5.9-14.73 0-7.08 2.28-12.45 6.83-16.12 4.55-3.67 10.77-5.5 18.64-5.5h12.34c.35 0 .53-.18.53-.53v-5.04c0-4.51-1.13-8.07-3.38-10.68-2.26-2.61-5.59-3.91-10.02-3.91-3.45 0-6.33.86-8.62 2.59-2.3 1.72-3.67 4-4.11 6.83-.09.8-.58 1.19-1.46 1.19l-7.3-.4c-.44 0-.78-.13-.99-.4a.997.997 0 0 1-.2-.93c.62-5.13 3.03-9.27 7.23-12.41 4.2-3.14 9.4-4.71 15.59-4.71 7.07.01 12.62 2.05 16.64 6.11zm-8.22 51.29c3.23-2.43 4.84-5.82 4.84-10.15v-10.75c0-.35-.18-.53-.53-.53h-11.68c-5.04 0-9.07 1.17-12.07 3.52-3.01 2.34-4.51 5.68-4.51 10.02 0 3.89 1.15 6.79 3.45 8.69 2.3 1.9 5.31 2.85 9.02 2.85 4.42-.01 8.25-1.22 11.48-3.65zm27.13 36.02v-5.31c0-.89.44-1.33 1.33-1.33h.27c3.09-.09 5.5-.62 7.23-1.59 1.72-.97 3.19-2.7 4.38-5.17 1.19-2.48 2.41-6.28 3.65-11.41.08-.09.08-.36 0-.8l-19.77-65.28-.13-.4c0-.71.44-1.06 1.33-1.06h7.16c.8 0 1.28.4 1.46 1.19l14.46 52.94c.09.18.2.27.33.27s.24-.09.33-.27l14.46-52.94c.18-.8.66-1.19 1.46-1.19h7.03c.44 0 .78.13 1 .4.22.27.29.62.2 1.06l-21.63 71.51c-1.77 5.93-3.52 10.3-5.24 13.13-1.72 2.83-3.89 4.8-6.5 5.9-2.61 1.1-6.3 1.66-11.08 1.66h-.8c-.62.01-.93-.43-.93-1.31z"/>
  <path class="st1" d="M1315.83 852.16c-98.39-40.7-166.25-128.08-181.83-234.45-.9-6.14 3.35-11.85 9.5-12.75 6.15-.9 11.85 3.35 12.75 9.5 14.57 99.54 78.5 181.14 171.24 218.18.04.02.08.03.12.05 5.68 2.35 8.43 8.84 6.14 14.57-2.31 5.77-8.85 8.57-14.62 6.26-1.1-.45-2.2-.9-3.3-1.36zm19.72-81.34c-65.46-27.08-110.61-85.21-120.96-155.96-.9-6.14 3.35-11.85 9.5-12.75 6.14-.9 11.85 3.35 12.75 9.5 9.2 62.83 49.25 114.43 107.32 138.45.65.27 1.3.53 1.95.79.04.02.08.03.12.05 5.68 2.35 8.43 8.84 6.14 14.57-2.31 5.77-8.85 8.57-14.62 6.26-.73-.31-1.47-.61-2.2-.91zm17.18-79.87c-29.99-12.4-50.66-39.02-55.41-71.41-.9-6.14 3.35-11.85 9.5-12.75 6.15-.9 11.85 3.35 12.75 9.5 3.62 24.73 19.5 45.09 42.52 54.21.04.02.08.03.12.05 5.68 2.35 8.43 8.84 6.14 14.57-2.31 5.77-8.85 8.57-14.62 6.26-.33-.15-.67-.29-1-.43z"/>
  <ellipse transform="rotate(-33.973 1535.437 444.737)" class="st3" cx="1535.35" cy="444.73" rx="231.26" ry="284.49"/>
  <ellipse transform="rotate(-33.973 1515.584 451.21)" class="st2" cx="1515.5" cy="451.2" rx="219.01" ry="281.18"/>
  <ellipse transform="rotate(-34.955 1472.057 476.949)" class="st1" cx="1471.94" cy="476.89" rx="108.3" ry="142.86"/>
  <ellipse transform="rotate(-34.955 1472.057 476.949)" class="st2" cx="1471.94" cy="476.89" rx="86.32" ry="113.87"/>
  <path class="st0" d="M1551.03 500.05c-1.82-16.19-8-32.98-18.68-48.25-28.32-40.51-77.49-55.01-109.84-32.4-18.62 13.02-27.61 35.51-26.46 59.99-8.22-31.97-.6-63.22 22.27-79.21 32.11-22.45 82.16-6.31 111.78 36.06 14.27 20.41 21.19 43.18 20.93 63.81z"/>
  <path class="st3" d="M1596.41 304.96c-.97 0-1.95-.35-2.72-1.06-27.16-25.14-92.46-58.99-144.47-57.12-2.2.06-4.06-1.65-4.14-3.85a4 4 0 0 1 3.85-4.14c56.61-2.01 123.08 34.16 150.19 59.25 1.62 1.5 1.72 4.03.22 5.65-.78.84-1.85 1.27-2.93 1.27zm-27.9 17.71c-.96 0-1.92-.34-2.69-1.04-28.24-25.67-75.8-43.75-115.65-43.95a3.999 3.999 0 0 1 .02-8h.02c41.66.22 91.42 19.15 120.99 46.03 1.63 1.49 1.76 4.02.27 5.65a3.98 3.98 0 0 1-2.96 1.31zm-26.03 19.21c-.97 0-1.94-.35-2.71-1.05-23.45-21.54-56.97-34.24-85.41-32.36a3.99 3.99 0 0 1-4.25-3.73 3.99 3.99 0 0 1 3.73-4.25c30.98-2.05 65.98 11.15 91.35 34.45 1.63 1.49 1.73 4.02.24 5.65-.79.85-1.87 1.29-2.95 1.29z"/>
</svg>
